<?xml version="1.0" encoding="utf-8" standalone="no"?>
<!DOCTYPE svg PUBLIC "-//W3C//DTD SVG 1.1//EN"
  "http://www.w3.org/Graphics/SVG/1.1/DTD/svg11.dtd">
<svg xmlns:xlink="http://www.w3.org/1999/xlink" width="432pt" height="288pt" viewBox="0 0 432 288" xmlns="http://www.w3.org/2000/svg" version="1.1">
 <metadata>
  <rdf:RDF xmlns:dc="http://purl.org/dc/elements/1.1/" xmlns:cc="http://creativecommons.org/ns#" xmlns:rdf="http://www.w3.org/1999/02/22-rdf-syntax-ns#">
   <cc:Work>
    <dc:type rdf:resource="http://purl.org/dc/dcmitype/StillImage"/>
    <dc:date>2025-03-25T20:32:52.118545</dc:date>
    <dc:format>image/svg+xml</dc:format>
    <dc:creator>
     <cc:Agent>
      <dc:title>Matplotlib v3.10.0, https://matplotlib.org/</dc:title>
     </cc:Agent>
    </dc:creator>
   </cc:Work>
  </rdf:RDF>
 </metadata>
 <defs>
  <style type="text/css">*{stroke-linejoin: round; stroke-linecap: butt}</style>
 </defs>
 <g id="figure_1">
  <g id="patch_1">
   <path d="M 0 288 
L 432 288 
L 432 0 
L 0 0 
z
" style="fill: #ffffff"/>
  </g>
  <g id="axes_1">
   <g id="patch_2">
    <path d="M 47.72 246.04 
L 421.2 246.04 
L 421.2 26.88 
L 47.72 26.88 
z
" style="fill: #ffffff"/>
   </g>
   <g id="FillBetweenPolyCollection_1">
    <defs>
     <path id="m5cfdc83ce5" d="M 64.696364 -51.921818 
L 64.696364 -52.380118 
L 68.125932 -52.521974 
L 71.5555 -52.702942 
L 74.985069 -52.932273 
L 78.414637 -53.220957 
L 81.844206 -53.581923 
L 85.273774 -54.030237 
L 88.703343 -54.583275 
L 92.132911 -55.260871 
L 95.562479 -56.085413 
L 98.992048 -57.081882 
L 102.421616 -58.277804 
L 105.851185 -59.703117 
L 109.280753 -61.389913 
L 112.710321 -63.372055 
L 116.13989 -65.684645 
L 119.569458 -68.363344 
L 122.999027 -71.443532 
L 126.428595 -74.959305 
L 129.858163 -78.942329 
L 133.287732 -83.420571 
L 136.7173 -88.416912 
L 140.146869 -93.947709 
L 143.576437 -100.021334 
L 147.006006 -106.636742 
L 150.435574 -113.782147 
L 153.865142 -121.433848 
L 157.294711 -129.555297 
L 160.724279 -138.096452 
L 164.153848 -146.9935 
L 167.583416 -156.168977 
L 171.012984 -165.532353 
L 174.442553 -174.98108 
L 177.872121 -184.402128 
L 181.30169 -193.673979 
L 184.731258 -202.669057 
L 188.160826 -211.256519 
L 191.590395 -219.305339 
L 195.019963 -213.324298 
L 198.449532 -204.859276 
L 201.8791 -195.953774 
L 205.308669 -186.738978 
L 208.738237 -177.343556 
L 212.167805 -167.890783 
L 215.597374 -158.496016 
L 219.026942 -149.264585 
L 222.456511 -140.290145 
L 225.886079 -131.653495 
L 229.315647 -123.421892 
L 232.745216 -115.648809 
L 236.174784 -108.37412 
L 239.604353 -101.624661 
L 243.033921 -95.415094 
L 246.463489 -89.749031 
L 249.893058 -84.620323 
L 253.322626 -80.014472 
L 256.752195 -75.91009 
L 260.181763 -72.280351 
L 263.611331 -69.09439 
L 267.0409 -66.318603 
L 270.470468 -63.917833 
L 273.900037 -61.856405 
L 277.329605 -60.099006 
L 280.759174 -58.611407 
L 284.188742 -57.361034 
L 287.61831 -56.31738 
L 291.047879 -55.452299 
L 294.477447 -54.740166 
L 297.907016 -54.157946 
L 301.336584 -53.685175 
L 304.766152 -53.303872 
L 308.195721 -52.99841 
L 311.625289 -52.755343 
L 315.054858 -52.563215 
L 318.484426 -52.412361 
L 321.913994 -52.294698 
L 325.343563 -52.203528 
L 328.773131 -52.13335 
L 332.2027 -52.079685 
L 335.632268 -52.038916 
L 339.061837 -52.008145 
L 342.491405 -51.985072 
L 345.920973 -51.967883 
L 349.350542 -51.95516 
L 352.78011 -51.945804 
L 356.209679 -51.938968 
L 359.639247 -51.934005 
L 363.068815 -51.930426 
L 366.498384 -51.927861 
L 369.927952 -51.926034 
L 373.357521 -51.924742 
L 376.787089 -51.923833 
L 380.216657 -51.923198 
L 383.646226 -51.922758 
L 387.075794 -51.922454 
L 390.505363 -51.922246 
L 393.934931 -51.922104 
L 397.3645 -51.922008 
L 400.794068 -51.921944 
L 404.223636 -51.9219 
L 404.223636 -51.921818 
L 404.223636 -51.921818 
L 400.794068 -51.921818 
L 397.3645 -51.921818 
L 393.934931 -51.921818 
L 390.505363 -51.921818 
L 387.075794 -51.921818 
L 383.646226 -51.921818 
L 380.216657 -51.921818 
L 376.787089 -51.921818 
L 373.357521 -51.921818 
L 369.927952 -51.921818 
L 366.498384 -51.921818 
L 363.068815 -51.921818 
L 359.639247 -51.921818 
L 356.209679 -51.921818 
L 352.78011 -51.921818 
L 349.350542 -51.921818 
L 345.920973 -51.921818 
L 342.491405 -51.921818 
L 339.061837 -51.921818 
L 335.632268 -51.921818 
L 332.2027 -51.921818 
L 328.773131 -51.921818 
L 325.343563 -51.921818 
L 321.913994 -51.921818 
L 318.484426 -51.921818 
L 315.054858 -51.921818 
L 311.625289 -51.921818 
L 308.195721 -51.921818 
L 304.766152 -51.921818 
L 301.336584 -51.921818 
L 297.907016 -51.921818 
L 294.477447 -51.921818 
L 291.047879 -51.921818 
L 287.61831 -51.921818 
L 284.188742 -51.921818 
L 280.759174 -51.921818 
L 277.329605 -51.921818 
L 273.900037 -51.921818 
L 270.470468 -51.921818 
L 267.0409 -51.921818 
L 263.611331 -51.921818 
L 260.181763 -51.921818 
L 256.752195 -51.921818 
L 253.322626 -51.921818 
L 249.893058 -51.921818 
L 246.463489 -51.921818 
L 243.033921 -51.921818 
L 239.604353 -51.921818 
L 236.174784 -51.921818 
L 232.745216 -51.921818 
L 229.315647 -51.921818 
L 225.886079 -51.921818 
L 222.456511 -51.921818 
L 219.026942 -51.921818 
L 215.597374 -51.921818 
L 212.167805 -51.921818 
L 208.738237 -51.921818 
L 205.308669 -51.921818 
L 201.8791 -51.921818 
L 198.449532 -51.921818 
L 195.019963 -51.921818 
L 191.590395 -51.921818 
L 188.160826 -51.921818 
L 184.731258 -51.921818 
L 181.30169 -51.921818 
L 177.872121 -51.921818 
L 174.442553 -51.921818 
L 171.012984 -51.921818 
L 167.583416 -51.921818 
L 164.153848 -51.921818 
L 160.724279 -51.921818 
L 157.294711 -51.921818 
L 153.865142 -51.921818 
L 150.435574 -51.921818 
L 147.006006 -51.921818 
L 143.576437 -51.921818 
L 140.146869 -51.921818 
L 136.7173 -51.921818 
L 133.287732 -51.921818 
L 129.858163 -51.921818 
L 126.428595 -51.921818 
L 122.999027 -51.921818 
L 119.569458 -51.921818 
L 116.13989 -51.921818 
L 112.710321 -51.921818 
L 109.280753 -51.921818 
L 105.851185 -51.921818 
L 102.421616 -51.921818 
L 98.992048 -51.921818 
L 95.562479 -51.921818 
L 92.132911 -51.921818 
L 88.703343 -51.921818 
L 85.273774 -51.921818 
L 81.844206 -51.921818 
L 78.414637 -51.921818 
L 74.985069 -51.921818 
L 71.5555 -51.921818 
L 68.125932 -51.921818 
L 64.696364 -51.921818 
z
" style="stroke: #800080; stroke-opacity: 0.2"/>
    </defs>
    <g clip-path="url(#p19e1816f74)">
     <use xlink:href="#m5cfdc83ce5" x="0" y="288" style="fill: #800080; fill-opacity: 0.2; stroke: #800080; stroke-opacity: 0.2"/>
    </g>
   </g>
   <g id="matplotlib.axis_1">
    <g id="xtick_1">
     <g id="line2d_1">
      <defs>
       <path id="m8626b5873c" d="M 0 0 
L 0 3.5 
" style="stroke: #000000; stroke-width: 0.8"/>
      </defs>
      <g>
       <use xlink:href="#m8626b5873c" x="64.696364" y="246.04" style="stroke: #000000; stroke-width: 0.8"/>
      </g>
     </g>
     <g id="text_1">
      <!-- 0 -->
      <g transform="translate(61.515114 260.638438) scale(0.1 -0.1)">
       <defs>
        <path id="DejaVuSans-30" d="M 2034 4250 
Q 1547 4250 1301 3770 
Q 1056 3291 1056 2328 
Q 1056 1369 1301 889 
Q 1547 409 2034 409 
Q 2525 409 2770 889 
Q 3016 1369 3016 2328 
Q 3016 3291 2770 3770 
Q 2525 4250 2034 4250 
z
M 2034 4750 
Q 2819 4750 3233 4129 
Q 3647 3509 3647 2328 
Q 3647 1150 3233 529 
Q 2819 -91 2034 -91 
Q 1250 -91 836 529 
Q 422 1150 422 2328 
Q 422 3509 836 4129 
Q 1250 4750 2034 4750 
z
" transform="scale(0.015625)"/>
       </defs>
       <use xlink:href="#DejaVuSans-30"/>
      </g>
     </g>
    </g>
    <g id="xtick_2">
     <g id="line2d_2">
      <g>
       <use xlink:href="#m8626b5873c" x="132.601818" y="246.04" style="stroke: #000000; stroke-width: 0.8"/>
      </g>
     </g>
     <g id="text_2">
      <!-- 2 -->
      <g transform="translate(129.420568 260.638438) scale(0.1 -0.1)">
       <defs>
        <path id="DejaVuSans-32" d="M 1228 531 
L 3431 531 
L 3431 0 
L 469 0 
L 469 531 
Q 828 903 1448 1529 
Q 2069 2156 2228 2338 
Q 2531 2678 2651 2914 
Q 2772 3150 2772 3378 
Q 2772 3750 2511 3984 
Q 2250 4219 1831 4219 
Q 1534 4219 1204 4116 
Q 875 4013 500 3803 
L 500 4441 
Q 881 4594 1212 4672 
Q 1544 4750 1819 4750 
Q 2544 4750 2975 4387 
Q 3406 4025 3406 3419 
Q 3406 3131 3298 2873 
Q 3191 2616 2906 2266 
Q 2828 2175 2409 1742 
Q 1991 1309 1228 531 
z
" transform="scale(0.015625)"/>
       </defs>
       <use xlink:href="#DejaVuSans-32"/>
      </g>
     </g>
    </g>
    <g id="xtick_3">
     <g id="line2d_3">
      <g>
       <use xlink:href="#m8626b5873c" x="200.507273" y="246.04" style="stroke: #000000; stroke-width: 0.8"/>
      </g>
     </g>
     <g id="text_3">
      <!-- 4 -->
      <g transform="translate(197.326023 260.638438) scale(0.1 -0.1)">
       <defs>
        <path id="DejaVuSans-34" d="M 2419 4116 
L 825 1625 
L 2419 1625 
L 2419 4116 
z
M 2253 4666 
L 3047 4666 
L 3047 1625 
L 3713 1625 
L 3713 1100 
L 3047 1100 
L 3047 0 
L 2419 0 
L 2419 1100 
L 313 1100 
L 313 1709 
L 2253 4666 
z
" transform="scale(0.015625)"/>
       </defs>
       <use xlink:href="#DejaVuSans-34"/>
      </g>
     </g>
    </g>
    <g id="xtick_4">
     <g id="line2d_4">
      <g>
       <use xlink:href="#m8626b5873c" x="268.412727" y="246.04" style="stroke: #000000; stroke-width: 0.8"/>
      </g>
     </g>
     <g id="text_4">
      <!-- 6 -->
      <g transform="translate(265.231477 260.638438) scale(0.1 -0.1)">
       <defs>
        <path id="DejaVuSans-36" d="M 2113 2584 
Q 1688 2584 1439 2293 
Q 1191 2003 1191 1497 
Q 1191 994 1439 701 
Q 1688 409 2113 409 
Q 2538 409 2786 701 
Q 3034 994 3034 1497 
Q 3034 2003 2786 2293 
Q 2538 2584 2113 2584 
z
M 3366 4563 
L 3366 3988 
Q 3128 4100 2886 4159 
Q 2644 4219 2406 4219 
Q 1781 4219 1451 3797 
Q 1122 3375 1075 2522 
Q 1259 2794 1537 2939 
Q 1816 3084 2150 3084 
Q 2853 3084 3261 2657 
Q 3669 2231 3669 1497 
Q 3669 778 3244 343 
Q 2819 -91 2113 -91 
Q 1303 -91 875 529 
Q 447 1150 447 2328 
Q 447 3434 972 4092 
Q 1497 4750 2381 4750 
Q 2619 4750 2861 4703 
Q 3103 4656 3366 4563 
z
" transform="scale(0.015625)"/>
       </defs>
       <use xlink:href="#DejaVuSans-36"/>
      </g>
     </g>
    </g>
    <g id="xtick_5">
     <g id="line2d_5">
      <g>
       <use xlink:href="#m8626b5873c" x="336.318182" y="246.04" style="stroke: #000000; stroke-width: 0.8"/>
      </g>
     </g>
     <g id="text_5">
      <!-- 8 -->
      <g transform="translate(333.136932 260.638438) scale(0.1 -0.1)">
       <defs>
        <path id="DejaVuSans-38" d="M 2034 2216 
Q 1584 2216 1326 1975 
Q 1069 1734 1069 1313 
Q 1069 891 1326 650 
Q 1584 409 2034 409 
Q 2484 409 2743 651 
Q 3003 894 3003 1313 
Q 3003 1734 2745 1975 
Q 2488 2216 2034 2216 
z
M 1403 2484 
Q 997 2584 770 2862 
Q 544 3141 544 3541 
Q 544 4100 942 4425 
Q 1341 4750 2034 4750 
Q 2731 4750 3128 4425 
Q 3525 4100 3525 3541 
Q 3525 3141 3298 2862 
Q 3072 2584 2669 2484 
Q 3125 2378 3379 2068 
Q 3634 1759 3634 1313 
Q 3634 634 3220 271 
Q 2806 -91 2034 -91 
Q 1263 -91 848 271 
Q 434 634 434 1313 
Q 434 1759 690 2068 
Q 947 2378 1403 2484 
z
M 1172 3481 
Q 1172 3119 1398 2916 
Q 1625 2713 2034 2713 
Q 2441 2713 2670 2916 
Q 2900 3119 2900 3481 
Q 2900 3844 2670 4047 
Q 2441 4250 2034 4250 
Q 1625 4250 1398 4047 
Q 1172 3844 1172 3481 
z
" transform="scale(0.015625)"/>
       </defs>
       <use xlink:href="#DejaVuSans-38"/>
      </g>
     </g>
    </g>
    <g id="xtick_6">
     <g id="line2d_6">
      <g>
       <use xlink:href="#m8626b5873c" x="404.223636" y="246.04" style="stroke: #000000; stroke-width: 0.8"/>
      </g>
     </g>
     <g id="text_6">
      <!-- 10 -->
      <g transform="translate(397.861136 260.638438) scale(0.1 -0.1)">
       <defs>
        <path id="DejaVuSans-31" d="M 794 531 
L 1825 531 
L 1825 4091 
L 703 3866 
L 703 4441 
L 1819 4666 
L 2450 4666 
L 2450 531 
L 3481 531 
L 3481 0 
L 794 0 
L 794 531 
z
" transform="scale(0.015625)"/>
       </defs>
       <use xlink:href="#DejaVuSans-31"/>
       <use xlink:href="#DejaVuSans-30" transform="translate(63.623047 0)"/>
      </g>
     </g>
    </g>
    <g id="text_7">
     <!-- State s' -->
     <g transform="translate(215.656875 274.316562) scale(0.1 -0.1)">
      <defs>
       <path id="DejaVuSans-53" d="M 3425 4513 
L 3425 3897 
Q 3066 4069 2747 4153 
Q 2428 4238 2131 4238 
Q 1616 4238 1336 4038 
Q 1056 3838 1056 3469 
Q 1056 3159 1242 3001 
Q 1428 2844 1947 2747 
L 2328 2669 
Q 3034 2534 3370 2195 
Q 3706 1856 3706 1288 
Q 3706 609 3251 259 
Q 2797 -91 1919 -91 
Q 1588 -91 1214 -16 
Q 841 59 441 206 
L 441 856 
Q 825 641 1194 531 
Q 1563 422 1919 422 
Q 2459 422 2753 634 
Q 3047 847 3047 1241 
Q 3047 1584 2836 1778 
Q 2625 1972 2144 2069 
L 1759 2144 
Q 1053 2284 737 2584 
Q 422 2884 422 3419 
Q 422 4038 858 4394 
Q 1294 4750 2059 4750 
Q 2388 4750 2728 4690 
Q 3069 4631 3425 4513 
z
" transform="scale(0.015625)"/>
       <path id="DejaVuSans-74" d="M 1172 4494 
L 1172 3500 
L 2356 3500 
L 2356 3053 
L 1172 3053 
L 1172 1153 
Q 1172 725 1289 603 
Q 1406 481 1766 481 
L 2356 481 
L 2356 0 
L 1766 0 
Q 1100 0 847 248 
Q 594 497 594 1153 
L 594 3053 
L 172 3053 
L 172 3500 
L 594 3500 
L 594 4494 
L 1172 4494 
z
" transform="scale(0.015625)"/>
       <path id="DejaVuSans-61" d="M 2194 1759 
Q 1497 1759 1228 1600 
Q 959 1441 959 1056 
Q 959 750 1161 570 
Q 1363 391 1709 391 
Q 2188 391 2477 730 
Q 2766 1069 2766 1631 
L 2766 1759 
L 2194 1759 
z
M 3341 1997 
L 3341 0 
L 2766 0 
L 2766 531 
Q 2569 213 2275 61 
Q 1981 -91 1556 -91 
Q 1019 -91 701 211 
Q 384 513 384 1019 
Q 384 1609 779 1909 
Q 1175 2209 1959 2209 
L 2766 2209 
L 2766 2266 
Q 2766 2663 2505 2880 
Q 2244 3097 1772 3097 
Q 1472 3097 1187 3025 
Q 903 2953 641 2809 
L 641 3341 
Q 956 3463 1253 3523 
Q 1550 3584 1831 3584 
Q 2591 3584 2966 3190 
Q 3341 2797 3341 1997 
z
" transform="scale(0.015625)"/>
       <path id="DejaVuSans-65" d="M 3597 1894 
L 3597 1613 
L 953 1613 
Q 991 1019 1311 708 
Q 1631 397 2203 397 
Q 2534 397 2845 478 
Q 3156 559 3463 722 
L 3463 178 
Q 3153 47 2828 -22 
Q 2503 -91 2169 -91 
Q 1331 -91 842 396 
Q 353 884 353 1716 
Q 353 2575 817 3079 
Q 1281 3584 2069 3584 
Q 2775 3584 3186 3129 
Q 3597 2675 3597 1894 
z
M 3022 2063 
Q 3016 2534 2758 2815 
Q 2500 3097 2075 3097 
Q 1594 3097 1305 2825 
Q 1016 2553 972 2059 
L 3022 2063 
z
" transform="scale(0.015625)"/>
       <path id="DejaVuSans-20" transform="scale(0.015625)"/>
       <path id="DejaVuSans-73" d="M 2834 3397 
L 2834 2853 
Q 2591 2978 2328 3040 
Q 2066 3103 1784 3103 
Q 1356 3103 1142 2972 
Q 928 2841 928 2578 
Q 928 2378 1081 2264 
Q 1234 2150 1697 2047 
L 1894 2003 
Q 2506 1872 2764 1633 
Q 3022 1394 3022 966 
Q 3022 478 2636 193 
Q 2250 -91 1575 -91 
Q 1294 -91 989 -36 
Q 684 19 347 128 
L 347 722 
Q 666 556 975 473 
Q 1284 391 1588 391 
Q 1994 391 2212 530 
Q 2431 669 2431 922 
Q 2431 1156 2273 1281 
Q 2116 1406 1581 1522 
L 1381 1569 
Q 847 1681 609 1914 
Q 372 2147 372 2553 
Q 372 3047 722 3315 
Q 1072 3584 1716 3584 
Q 2034 3584 2315 3537 
Q 2597 3491 2834 3397 
z
" transform="scale(0.015625)"/>
       <path id="DejaVuSans-27" d="M 1147 4666 
L 1147 2931 
L 616 2931 
L 616 4666 
L 1147 4666 
z
" transform="scale(0.015625)"/>
      </defs>
      <use xlink:href="#DejaVuSans-53"/>
      <use xlink:href="#DejaVuSans-74" transform="translate(63.476562 0)"/>
      <use xlink:href="#DejaVuSans-61" transform="translate(102.685547 0)"/>
      <use xlink:href="#DejaVuSans-74" transform="translate(163.964844 0)"/>
      <use xlink:href="#DejaVuSans-65" transform="translate(203.173828 0)"/>
      <use xlink:href="#DejaVuSans-20" transform="translate(264.697266 0)"/>
      <use xlink:href="#DejaVuSans-73" transform="translate(296.484375 0)"/>
      <use xlink:href="#DejaVuSans-27" transform="translate(348.583984 0)"/>
     </g>
    </g>
   </g>
   <g id="matplotlib.axis_2">
    <g id="ytick_1">
     <g id="line2d_7">
      <defs>
       <path id="mf11e0b380d" d="M 0 0 
L -3.5 0 
" style="stroke: #000000; stroke-width: 0.8"/>
      </defs>
      <g>
       <use xlink:href="#mf11e0b380d" x="47.72" y="236.078182" style="stroke: #000000; stroke-width: 0.8"/>
      </g>
     </g>
     <g id="text_8">
      <!-- 0.0 -->
      <g transform="translate(24.816875 239.877401) scale(0.1 -0.1)">
       <defs>
        <path id="DejaVuSans-2e" d="M 684 794 
L 1344 794 
L 1344 0 
L 684 0 
L 684 794 
z
" transform="scale(0.015625)"/>
       </defs>
       <use xlink:href="#DejaVuSans-30"/>
       <use xlink:href="#DejaVuSans-2e" transform="translate(63.623047 0)"/>
       <use xlink:href="#DejaVuSans-30" transform="translate(95.410156 0)"/>
      </g>
     </g>
    </g>
    <g id="ytick_2">
     <g id="line2d_8">
      <g>
       <use xlink:href="#mf11e0b380d" x="47.72" y="196.21993" style="stroke: #000000; stroke-width: 0.8"/>
      </g>
     </g>
     <g id="text_9">
      <!-- 0.2 -->
      <g transform="translate(24.816875 200.019149) scale(0.1 -0.1)">
       <use xlink:href="#DejaVuSans-30"/>
       <use xlink:href="#DejaVuSans-2e" transform="translate(63.623047 0)"/>
       <use xlink:href="#DejaVuSans-32" transform="translate(95.410156 0)"/>
      </g>
     </g>
    </g>
    <g id="ytick_3">
     <g id="line2d_9">
      <g>
       <use xlink:href="#mf11e0b380d" x="47.72" y="156.361679" style="stroke: #000000; stroke-width: 0.8"/>
      </g>
     </g>
     <g id="text_10">
      <!-- 0.4 -->
      <g transform="translate(24.816875 160.160898) scale(0.1 -0.1)">
       <use xlink:href="#DejaVuSans-30"/>
       <use xlink:href="#DejaVuSans-2e" transform="translate(63.623047 0)"/>
       <use xlink:href="#DejaVuSans-34" transform="translate(95.410156 0)"/>
      </g>
     </g>
    </g>
    <g id="ytick_4">
     <g id="line2d_10">
      <g>
       <use xlink:href="#mf11e0b380d" x="47.72" y="116.503427" style="stroke: #000000; stroke-width: 0.8"/>
      </g>
     </g>
     <g id="text_11">
      <!-- 0.6 -->
      <g transform="translate(24.816875 120.302646) scale(0.1 -0.1)">
       <use xlink:href="#DejaVuSans-30"/>
       <use xlink:href="#DejaVuSans-2e" transform="translate(63.623047 0)"/>
       <use xlink:href="#DejaVuSans-36" transform="translate(95.410156 0)"/>
      </g>
     </g>
    </g>
    <g id="ytick_5">
     <g id="line2d_11">
      <g>
       <use xlink:href="#mf11e0b380d" x="47.72" y="76.645176" style="stroke: #000000; stroke-width: 0.8"/>
      </g>
     </g>
     <g id="text_12">
      <!-- 0.8 -->
      <g transform="translate(24.816875 80.444395) scale(0.1 -0.1)">
       <use xlink:href="#DejaVuSans-30"/>
       <use xlink:href="#DejaVuSans-2e" transform="translate(63.623047 0)"/>
       <use xlink:href="#DejaVuSans-38" transform="translate(95.410156 0)"/>
      </g>
     </g>
    </g>
    <g id="ytick_6">
     <g id="line2d_12">
      <g>
       <use xlink:href="#mf11e0b380d" x="47.72" y="36.786925" style="stroke: #000000; stroke-width: 0.8"/>
      </g>
     </g>
     <g id="text_13">
      <!-- 1.0 -->
      <g transform="translate(24.816875 40.586143) scale(0.1 -0.1)">
       <use xlink:href="#DejaVuSans-31"/>
       <use xlink:href="#DejaVuSans-2e" transform="translate(63.623047 0)"/>
       <use xlink:href="#DejaVuSans-30" transform="translate(95.410156 0)"/>
      </g>
     </g>
    </g>
    <g id="text_14">
     <!-- Occupancy -->
     <g transform="translate(18.737188 164.17875) rotate(-90) scale(0.1 -0.1)">
      <defs>
       <path id="DejaVuSans-4f" d="M 2522 4238 
Q 1834 4238 1429 3725 
Q 1025 3213 1025 2328 
Q 1025 1447 1429 934 
Q 1834 422 2522 422 
Q 3209 422 3611 934 
Q 4013 1447 4013 2328 
Q 4013 3213 3611 3725 
Q 3209 4238 2522 4238 
z
M 2522 4750 
Q 3503 4750 4090 4092 
Q 4678 3434 4678 2328 
Q 4678 1225 4090 567 
Q 3503 -91 2522 -91 
Q 1538 -91 948 565 
Q 359 1222 359 2328 
Q 359 3434 948 4092 
Q 1538 4750 2522 4750 
z
" transform="scale(0.015625)"/>
       <path id="DejaVuSans-63" d="M 3122 3366 
L 3122 2828 
Q 2878 2963 2633 3030 
Q 2388 3097 2138 3097 
Q 1578 3097 1268 2742 
Q 959 2388 959 1747 
Q 959 1106 1268 751 
Q 1578 397 2138 397 
Q 2388 397 2633 464 
Q 2878 531 3122 666 
L 3122 134 
Q 2881 22 2623 -34 
Q 2366 -91 2075 -91 
Q 1284 -91 818 406 
Q 353 903 353 1747 
Q 353 2603 823 3093 
Q 1294 3584 2113 3584 
Q 2378 3584 2631 3529 
Q 2884 3475 3122 3366 
z
" transform="scale(0.015625)"/>
       <path id="DejaVuSans-75" d="M 544 1381 
L 544 3500 
L 1119 3500 
L 1119 1403 
Q 1119 906 1312 657 
Q 1506 409 1894 409 
Q 2359 409 2629 706 
Q 2900 1003 2900 1516 
L 2900 3500 
L 3475 3500 
L 3475 0 
L 2900 0 
L 2900 538 
Q 2691 219 2414 64 
Q 2138 -91 1772 -91 
Q 1169 -91 856 284 
Q 544 659 544 1381 
z
M 1991 3584 
L 1991 3584 
z
" transform="scale(0.015625)"/>
       <path id="DejaVuSans-70" d="M 1159 525 
L 1159 -1331 
L 581 -1331 
L 581 3500 
L 1159 3500 
L 1159 2969 
Q 1341 3281 1617 3432 
Q 1894 3584 2278 3584 
Q 2916 3584 3314 3078 
Q 3713 2572 3713 1747 
Q 3713 922 3314 415 
Q 2916 -91 2278 -91 
Q 1894 -91 1617 61 
Q 1341 213 1159 525 
z
M 3116 1747 
Q 3116 2381 2855 2742 
Q 2594 3103 2138 3103 
Q 1681 3103 1420 2742 
Q 1159 2381 1159 1747 
Q 1159 1113 1420 752 
Q 1681 391 2138 391 
Q 2594 391 2855 752 
Q 3116 1113 3116 1747 
z
" transform="scale(0.015625)"/>
       <path id="DejaVuSans-6e" d="M 3513 2113 
L 3513 0 
L 2938 0 
L 2938 2094 
Q 2938 2591 2744 2837 
Q 2550 3084 2163 3084 
Q 1697 3084 1428 2787 
Q 1159 2491 1159 1978 
L 1159 0 
L 581 0 
L 581 3500 
L 1159 3500 
L 1159 2956 
Q 1366 3272 1645 3428 
Q 1925 3584 2291 3584 
Q 2894 3584 3203 3211 
Q 3513 2838 3513 2113 
z
" transform="scale(0.015625)"/>
       <path id="DejaVuSans-79" d="M 2059 -325 
Q 1816 -950 1584 -1140 
Q 1353 -1331 966 -1331 
L 506 -1331 
L 506 -850 
L 844 -850 
Q 1081 -850 1212 -737 
Q 1344 -625 1503 -206 
L 1606 56 
L 191 3500 
L 800 3500 
L 1894 763 
L 2988 3500 
L 3597 3500 
L 2059 -325 
z
" transform="scale(0.015625)"/>
      </defs>
      <use xlink:href="#DejaVuSans-4f"/>
      <use xlink:href="#DejaVuSans-63" transform="translate(78.710938 0)"/>
      <use xlink:href="#DejaVuSans-63" transform="translate(133.691406 0)"/>
      <use xlink:href="#DejaVuSans-75" transform="translate(188.671875 0)"/>
      <use xlink:href="#DejaVuSans-70" transform="translate(252.050781 0)"/>
      <use xlink:href="#DejaVuSans-61" transform="translate(315.527344 0)"/>
      <use xlink:href="#DejaVuSans-6e" transform="translate(376.806641 0)"/>
      <use xlink:href="#DejaVuSans-63" transform="translate(440.185547 0)"/>
      <use xlink:href="#DejaVuSans-79" transform="translate(495.166016 0)"/>
     </g>
    </g>
   </g>
   <g id="line2d_13">
    <path d="M 64.696364 222.684711 
L 68.125932 220.0632 
L 71.5555 217.045453 
L 74.985069 213.59711 
L 78.414637 209.686062 
L 81.844206 205.283701 
L 85.273774 200.366294 
L 88.703343 194.916411 
L 92.132911 188.92439 
L 95.562479 182.389774 
L 98.992048 175.322661 
L 102.421616 167.744896 
L 105.851185 159.691055 
L 109.280753 151.209124 
L 112.710321 142.360852 
L 116.13989 133.221678 
L 119.569458 123.880228 
L 122.999027 114.437333 
L 126.428595 105.004569 
L 129.858163 95.702324 
L 133.287732 86.657434 
L 136.7173 78.000445 
L 140.146869 69.862559 
L 143.576437 62.372391 
L 147.006006 55.652615 
L 150.435574 49.816643 
L 153.865142 44.96545 
L 157.294711 41.184671 
L 160.724279 38.542088 
L 164.153848 37.085607 
L 167.583416 36.841818 
L 171.012984 37.815185 
L 174.442553 39.987908 
L 177.872121 43.320469 
L 181.30169 47.752824 
L 184.731258 53.206203 
L 188.160826 59.585439 
L 191.590395 66.781727 
L 195.019963 74.675702 
L 198.449532 83.140724 
L 201.8791 92.046226 
L 205.308669 101.261022 
L 208.738237 110.656444 
L 212.167805 120.109217 
L 215.597374 129.503984 
L 219.026942 138.735415 
L 222.456511 147.709855 
L 225.886079 156.346505 
L 229.315647 164.578108 
L 232.745216 172.351191 
L 236.174784 179.62588 
L 239.604353 186.375339 
L 243.033921 192.584906 
L 246.463489 198.250969 
L 249.893058 203.379677 
L 253.322626 207.985528 
L 256.752195 212.08991 
L 260.181763 215.719649 
L 263.611331 218.90561 
L 267.0409 221.681397 
L 270.470468 224.082167 
L 273.900037 226.143595 
L 277.329605 227.900994 
L 280.759174 229.388593 
L 284.188742 230.638966 
L 287.61831 231.68262 
L 291.047879 232.547701 
L 294.477447 233.259834 
L 297.907016 233.842054 
L 301.336584 234.314825 
L 304.766152 234.696128 
L 308.195721 235.00159 
L 311.625289 235.244657 
L 315.054858 235.436785 
L 318.484426 235.587639 
L 321.913994 235.705302 
L 325.343563 235.796472 
L 328.773131 235.86665 
L 332.2027 235.920315 
L 335.632268 235.961084 
L 339.061837 235.991855 
L 342.491405 236.014928 
L 345.920973 236.032117 
L 349.350542 236.04484 
L 352.78011 236.054196 
L 356.209679 236.061032 
L 359.639247 236.065995 
L 363.068815 236.069574 
L 366.498384 236.072139 
L 369.927952 236.073966 
L 373.357521 236.075258 
L 376.787089 236.076167 
L 380.216657 236.076802 
L 383.646226 236.077242 
L 387.075794 236.077546 
L 390.505363 236.077754 
L 393.934931 236.077896 
L 397.3645 236.077992 
L 400.794068 236.078056 
L 404.223636 236.0781 
" clip-path="url(#p19e1816f74)" style="fill: none; stroke: #0000ff; stroke-width: 2; stroke-linecap: square"/>
   </g>
   <g id="line2d_14">
    <path d="M 64.696364 235.619882 
L 68.125932 235.478026 
L 71.5555 235.297058 
L 74.985069 235.067727 
L 78.414637 234.779043 
L 81.844206 234.418077 
L 85.273774 233.969763 
L 88.703343 233.416725 
L 92.132911 232.739129 
L 95.562479 231.914587 
L 98.992048 230.918118 
L 102.421616 229.722196 
L 105.851185 228.296883 
L 109.280753 226.610087 
L 112.710321 224.627945 
L 116.13989 222.315355 
L 119.569458 219.636656 
L 122.999027 216.556468 
L 126.428595 213.040695 
L 129.858163 209.057671 
L 133.287732 204.579429 
L 136.7173 199.583088 
L 140.146869 194.052291 
L 143.576437 187.978666 
L 147.006006 181.363258 
L 150.435574 174.217853 
L 153.865142 166.566152 
L 157.294711 158.444703 
L 160.724279 149.903548 
L 164.153848 141.0065 
L 167.583416 131.831023 
L 171.012984 122.467647 
L 174.442553 113.01892 
L 177.872121 103.597872 
L 181.30169 94.326021 
L 184.731258 85.330943 
L 188.160826 76.743481 
L 191.590395 68.694661 
L 195.019963 61.31242 
L 198.449532 54.718253 
L 201.8791 49.023905 
L 205.308669 44.328225 
L 208.738237 40.71432 
L 212.167805 38.247105 
L 215.597374 36.971368 
L 219.026942 36.910414 
L 222.456511 38.065359 
L 225.886079 40.415095 
L 229.315647 43.916934 
L 232.745216 48.507894 
L 236.174784 54.106585 
L 239.604353 60.615609 
L 243.033921 67.924374 
L 246.463489 75.912214 
L 249.893058 84.451683 
L 253.322626 93.411916 
L 256.752195 102.661907 
L 260.181763 112.073624 
L 263.611331 121.524827 
L 267.0409 130.901539 
L 270.470468 140.100088 
L 273.900037 149.028686 
L 277.329605 157.608529 
L 280.759174 165.774427 
L 284.188742 173.474967 
L 287.61831 180.672273 
L 291.047879 187.3414 
L 294.477447 193.469417 
L 297.907016 199.054265 
L 301.336584 204.103435 
L 304.766152 208.632553 
L 308.195721 212.663914 
L 311.625289 216.225037 
L 315.054858 219.34728 
L 318.484426 222.064549 
L 321.913994 224.412143 
L 325.343563 226.425734 
L 328.773131 228.140516 
L 332.2027 229.590501 
L 335.632268 230.807977 
L 339.061837 231.823111 
L 342.491405 232.663679 
L 345.920973 233.35492 
L 349.350542 233.91948 
L 352.78011 234.377444 
L 356.209679 234.74643 
L 359.639247 235.041727 
L 363.068815 235.276468 
L 366.498384 235.461829 
L 369.927952 235.607226 
L 373.357521 235.72052 
L 376.787089 235.808217 
L 380.216657 235.875655 
L 383.646226 235.927174 
L 387.075794 235.966275 
L 390.505363 235.995757 
L 393.934931 236.017843 
L 397.3645 236.03428 
L 400.794068 236.046435 
L 404.223636 236.055364 
" clip-path="url(#p19e1816f74)" style="fill: none; stroke-dasharray: 7.4,3.2; stroke-dashoffset: 0; stroke: #ffa500; stroke-width: 2"/>
   </g>
   <g id="patch_3">
    <path d="M 47.72 246.04 
L 47.72 26.88 
" style="fill: none; stroke: #000000; stroke-width: 0.8; stroke-linejoin: miter; stroke-linecap: square"/>
   </g>
   <g id="patch_4">
    <path d="M 421.2 246.04 
L 421.2 26.88 
" style="fill: none; stroke: #000000; stroke-width: 0.8; stroke-linejoin: miter; stroke-linecap: square"/>
   </g>
   <g id="patch_5">
    <path d="M 47.72 246.04 
L 421.2 246.04 
" style="fill: none; stroke: #000000; stroke-width: 0.8; stroke-linejoin: miter; stroke-linecap: square"/>
   </g>
   <g id="patch_6">
    <path d="M 47.72 26.88 
L 421.2 26.88 
" style="fill: none; stroke: #000000; stroke-width: 0.8; stroke-linejoin: miter; stroke-linecap: square"/>
   </g>
   <g id="text_15">
    <!-- MASR Equivalence: Discounted State Distribution -->
    <g transform="translate(86.37625 20.88) scale(0.12 -0.12)">
     <defs>
      <path id="DejaVuSans-4d" d="M 628 4666 
L 1569 4666 
L 2759 1491 
L 3956 4666 
L 4897 4666 
L 4897 0 
L 4281 0 
L 4281 4097 
L 3078 897 
L 2444 897 
L 1241 4097 
L 1241 0 
L 628 0 
L 628 4666 
z
" transform="scale(0.015625)"/>
      <path id="DejaVuSans-41" d="M 2188 4044 
L 1331 1722 
L 3047 1722 
L 2188 4044 
z
M 1831 4666 
L 2547 4666 
L 4325 0 
L 3669 0 
L 3244 1197 
L 1141 1197 
L 716 0 
L 50 0 
L 1831 4666 
z
" transform="scale(0.015625)"/>
      <path id="DejaVuSans-52" d="M 2841 2188 
Q 3044 2119 3236 1894 
Q 3428 1669 3622 1275 
L 4263 0 
L 3584 0 
L 2988 1197 
Q 2756 1666 2539 1819 
Q 2322 1972 1947 1972 
L 1259 1972 
L 1259 0 
L 628 0 
L 628 4666 
L 2053 4666 
Q 2853 4666 3247 4331 
Q 3641 3997 3641 3322 
Q 3641 2881 3436 2590 
Q 3231 2300 2841 2188 
z
M 1259 4147 
L 1259 2491 
L 2053 2491 
Q 2509 2491 2742 2702 
Q 2975 2913 2975 3322 
Q 2975 3731 2742 3939 
Q 2509 4147 2053 4147 
L 1259 4147 
z
" transform="scale(0.015625)"/>
      <path id="DejaVuSans-45" d="M 628 4666 
L 3578 4666 
L 3578 4134 
L 1259 4134 
L 1259 2753 
L 3481 2753 
L 3481 2222 
L 1259 2222 
L 1259 531 
L 3634 531 
L 3634 0 
L 628 0 
L 628 4666 
z
" transform="scale(0.015625)"/>
      <path id="DejaVuSans-71" d="M 947 1747 
Q 947 1113 1208 752 
Q 1469 391 1925 391 
Q 2381 391 2643 752 
Q 2906 1113 2906 1747 
Q 2906 2381 2643 2742 
Q 2381 3103 1925 3103 
Q 1469 3103 1208 2742 
Q 947 2381 947 1747 
z
M 2906 525 
Q 2725 213 2448 61 
Q 2172 -91 1784 -91 
Q 1150 -91 751 415 
Q 353 922 353 1747 
Q 353 2572 751 3078 
Q 1150 3584 1784 3584 
Q 2172 3584 2448 3432 
Q 2725 3281 2906 2969 
L 2906 3500 
L 3481 3500 
L 3481 -1331 
L 2906 -1331 
L 2906 525 
z
" transform="scale(0.015625)"/>
      <path id="DejaVuSans-69" d="M 603 3500 
L 1178 3500 
L 1178 0 
L 603 0 
L 603 3500 
z
M 603 4863 
L 1178 4863 
L 1178 4134 
L 603 4134 
L 603 4863 
z
" transform="scale(0.015625)"/>
      <path id="DejaVuSans-76" d="M 191 3500 
L 800 3500 
L 1894 563 
L 2988 3500 
L 3597 3500 
L 2284 0 
L 1503 0 
L 191 3500 
z
" transform="scale(0.015625)"/>
      <path id="DejaVuSans-6c" d="M 603 4863 
L 1178 4863 
L 1178 0 
L 603 0 
L 603 4863 
z
" transform="scale(0.015625)"/>
      <path id="DejaVuSans-3a" d="M 750 794 
L 1409 794 
L 1409 0 
L 750 0 
L 750 794 
z
M 750 3309 
L 1409 3309 
L 1409 2516 
L 750 2516 
L 750 3309 
z
" transform="scale(0.015625)"/>
      <path id="DejaVuSans-44" d="M 1259 4147 
L 1259 519 
L 2022 519 
Q 2988 519 3436 956 
Q 3884 1394 3884 2338 
Q 3884 3275 3436 3711 
Q 2988 4147 2022 4147 
L 1259 4147 
z
M 628 4666 
L 1925 4666 
Q 3281 4666 3915 4102 
Q 4550 3538 4550 2338 
Q 4550 1131 3912 565 
Q 3275 0 1925 0 
L 628 0 
L 628 4666 
z
" transform="scale(0.015625)"/>
      <path id="DejaVuSans-6f" d="M 1959 3097 
Q 1497 3097 1228 2736 
Q 959 2375 959 1747 
Q 959 1119 1226 758 
Q 1494 397 1959 397 
Q 2419 397 2687 759 
Q 2956 1122 2956 1747 
Q 2956 2369 2687 2733 
Q 2419 3097 1959 3097 
z
M 1959 3584 
Q 2709 3584 3137 3096 
Q 3566 2609 3566 1747 
Q 3566 888 3137 398 
Q 2709 -91 1959 -91 
Q 1206 -91 779 398 
Q 353 888 353 1747 
Q 353 2609 779 3096 
Q 1206 3584 1959 3584 
z
" transform="scale(0.015625)"/>
      <path id="DejaVuSans-64" d="M 2906 2969 
L 2906 4863 
L 3481 4863 
L 3481 0 
L 2906 0 
L 2906 525 
Q 2725 213 2448 61 
Q 2172 -91 1784 -91 
Q 1150 -91 751 415 
Q 353 922 353 1747 
Q 353 2572 751 3078 
Q 1150 3584 1784 3584 
Q 2172 3584 2448 3432 
Q 2725 3281 2906 2969 
z
M 947 1747 
Q 947 1113 1208 752 
Q 1469 391 1925 391 
Q 2381 391 2643 752 
Q 2906 1113 2906 1747 
Q 2906 2381 2643 2742 
Q 2381 3103 1925 3103 
Q 1469 3103 1208 2742 
Q 947 2381 947 1747 
z
" transform="scale(0.015625)"/>
      <path id="DejaVuSans-72" d="M 2631 2963 
Q 2534 3019 2420 3045 
Q 2306 3072 2169 3072 
Q 1681 3072 1420 2755 
Q 1159 2438 1159 1844 
L 1159 0 
L 581 0 
L 581 3500 
L 1159 3500 
L 1159 2956 
Q 1341 3275 1631 3429 
Q 1922 3584 2338 3584 
Q 2397 3584 2469 3576 
Q 2541 3569 2628 3553 
L 2631 2963 
z
" transform="scale(0.015625)"/>
      <path id="DejaVuSans-62" d="M 3116 1747 
Q 3116 2381 2855 2742 
Q 2594 3103 2138 3103 
Q 1681 3103 1420 2742 
Q 1159 2381 1159 1747 
Q 1159 1113 1420 752 
Q 1681 391 2138 391 
Q 2594 391 2855 752 
Q 3116 1113 3116 1747 
z
M 1159 2969 
Q 1341 3281 1617 3432 
Q 1894 3584 2278 3584 
Q 2916 3584 3314 3078 
Q 3713 2572 3713 1747 
Q 3713 922 3314 415 
Q 2916 -91 2278 -91 
Q 1894 -91 1617 61 
Q 1341 213 1159 525 
L 1159 0 
L 581 0 
L 581 4863 
L 1159 4863 
L 1159 2969 
z
" transform="scale(0.015625)"/>
     </defs>
     <use xlink:href="#DejaVuSans-4d"/>
     <use xlink:href="#DejaVuSans-41" transform="translate(86.279297 0)"/>
     <use xlink:href="#DejaVuSans-53" transform="translate(154.6875 0)"/>
     <use xlink:href="#DejaVuSans-52" transform="translate(218.164062 0)"/>
     <use xlink:href="#DejaVuSans-20" transform="translate(287.646484 0)"/>
     <use xlink:href="#DejaVuSans-45" transform="translate(319.433594 0)"/>
     <use xlink:href="#DejaVuSans-71" transform="translate(382.617188 0)"/>
     <use xlink:href="#DejaVuSans-75" transform="translate(446.09375 0)"/>
     <use xlink:href="#DejaVuSans-69" transform="translate(509.472656 0)"/>
     <use xlink:href="#DejaVuSans-76" transform="translate(537.255859 0)"/>
     <use xlink:href="#DejaVuSans-61" transform="translate(596.435547 0)"/>
     <use xlink:href="#DejaVuSans-6c" transform="translate(657.714844 0)"/>
     <use xlink:href="#DejaVuSans-65" transform="translate(685.498047 0)"/>
     <use xlink:href="#DejaVuSans-6e" transform="translate(747.021484 0)"/>
     <use xlink:href="#DejaVuSans-63" transform="translate(810.400391 0)"/>
     <use xlink:href="#DejaVuSans-65" transform="translate(865.380859 0)"/>
     <use xlink:href="#DejaVuSans-3a" transform="translate(926.904297 0)"/>
     <use xlink:href="#DejaVuSans-20" transform="translate(960.595703 0)"/>
     <use xlink:href="#DejaVuSans-44" transform="translate(992.382812 0)"/>
     <use xlink:href="#DejaVuSans-69" transform="translate(1069.384766 0)"/>
     <use xlink:href="#DejaVuSans-73" transform="translate(1097.167969 0)"/>
     <use xlink:href="#DejaVuSans-63" transform="translate(1149.267578 0)"/>
     <use xlink:href="#DejaVuSans-6f" transform="translate(1204.248047 0)"/>
     <use xlink:href="#DejaVuSans-75" transform="translate(1265.429688 0)"/>
     <use xlink:href="#DejaVuSans-6e" transform="translate(1328.808594 0)"/>
     <use xlink:href="#DejaVuSans-74" transform="translate(1392.1875 0)"/>
     <use xlink:href="#DejaVuSans-65" transform="translate(1431.396484 0)"/>
     <use xlink:href="#DejaVuSans-64" transform="translate(1492.919922 0)"/>
     <use xlink:href="#DejaVuSans-20" transform="translate(1556.396484 0)"/>
     <use xlink:href="#DejaVuSans-53" transform="translate(1588.183594 0)"/>
     <use xlink:href="#DejaVuSans-74" transform="translate(1651.660156 0)"/>
     <use xlink:href="#DejaVuSans-61" transform="translate(1690.869141 0)"/>
     <use xlink:href="#DejaVuSans-74" transform="translate(1752.148438 0)"/>
     <use xlink:href="#DejaVuSans-65" transform="translate(1791.357422 0)"/>
     <use xlink:href="#DejaVuSans-20" transform="translate(1852.880859 0)"/>
     <use xlink:href="#DejaVuSans-44" transform="translate(1884.667969 0)"/>
     <use xlink:href="#DejaVuSans-69" transform="translate(1961.669922 0)"/>
     <use xlink:href="#DejaVuSans-73" transform="translate(1989.453125 0)"/>
     <use xlink:href="#DejaVuSans-74" transform="translate(2041.552734 0)"/>
     <use xlink:href="#DejaVuSans-72" transform="translate(2080.761719 0)"/>
     <use xlink:href="#DejaVuSans-69" transform="translate(2121.875 0)"/>
     <use xlink:href="#DejaVuSans-62" transform="translate(2149.658203 0)"/>
     <use xlink:href="#DejaVuSans-75" transform="translate(2213.134766 0)"/>
     <use xlink:href="#DejaVuSans-74" transform="translate(2276.513672 0)"/>
     <use xlink:href="#DejaVuSans-69" transform="translate(2315.722656 0)"/>
     <use xlink:href="#DejaVuSans-6f" transform="translate(2343.505859 0)"/>
     <use xlink:href="#DejaVuSans-6e" transform="translate(2404.6875 0)"/>
    </g>
   </g>
   <g id="legend_1">
    <g id="patch_7">
     <path d="M 303.1375 79.470625 
L 414.2 79.470625 
Q 416.2 79.470625 416.2 77.470625 
L 416.2 33.88 
Q 416.2 31.88 414.2 31.88 
L 303.1375 31.88 
Q 301.1375 31.88 301.1375 33.88 
L 301.1375 77.470625 
Q 301.1375 79.470625 303.1375 79.470625 
z
" style="fill: #ffffff; opacity: 0.8; stroke: #cccccc; stroke-linejoin: miter"/>
    </g>
    <g id="line2d_15">
     <path d="M 305.1375 39.978438 
L 315.1375 39.978438 
L 325.1375 39.978438 
" style="fill: none; stroke: #0000ff; stroke-width: 2; stroke-linecap: square"/>
    </g>
    <g id="text_16">
     <!-- Mπi_π₋i(s, a, s') -->
     <g transform="translate(333.1375 43.478438) scale(0.1 -0.1)">
      <defs>
       <path id="DejaVuSans-3c0" d="M 231 3500 
L 3584 3500 
L 3584 2925 
L 3144 2925 
L 3144 775 
Q 3144 550 3220 451 
Q 3297 353 3469 353 
Q 3516 353 3584 361 
Q 3653 369 3675 372 
L 3675 -44 
Q 3566 -84 3450 -103 
Q 3334 -122 3219 -122 
Q 2844 -122 2700 83 
Q 2556 288 2556 838 
L 2556 2925 
L 1266 2925 
L 1266 0 
L 678 0 
L 678 2925 
L 231 2925 
L 231 3500 
z
" transform="scale(0.015625)"/>
       <path id="DejaVuSans-5f" d="M 3263 -1063 
L 3263 -1509 
L -63 -1509 
L -63 -1063 
L 3263 -1063 
z
" transform="scale(0.015625)"/>
       <path id="DejaVuSans-208b" d="M 428 1247 
L 2950 1247 
L 2950 951 
L 428 951 
L 428 1247 
z
" transform="scale(0.015625)"/>
       <path id="DejaVuSans-28" d="M 1984 4856 
Q 1566 4138 1362 3434 
Q 1159 2731 1159 2009 
Q 1159 1288 1364 580 
Q 1569 -128 1984 -844 
L 1484 -844 
Q 1016 -109 783 600 
Q 550 1309 550 2009 
Q 550 2706 781 3412 
Q 1013 4119 1484 4856 
L 1984 4856 
z
" transform="scale(0.015625)"/>
       <path id="DejaVuSans-2c" d="M 750 794 
L 1409 794 
L 1409 256 
L 897 -744 
L 494 -744 
L 750 256 
L 750 794 
z
" transform="scale(0.015625)"/>
       <path id="DejaVuSans-29" d="M 513 4856 
L 1013 4856 
Q 1481 4119 1714 3412 
Q 1947 2706 1947 2009 
Q 1947 1309 1714 600 
Q 1481 -109 1013 -844 
L 513 -844 
Q 928 -128 1133 580 
Q 1338 1288 1338 2009 
Q 1338 2731 1133 3434 
Q 928 4138 513 4856 
z
" transform="scale(0.015625)"/>
      </defs>
      <use xlink:href="#DejaVuSans-4d"/>
      <use xlink:href="#DejaVuSans-3c0" transform="translate(86.279297 0)"/>
      <use xlink:href="#DejaVuSans-69" transform="translate(146.484375 0)"/>
      <use xlink:href="#DejaVuSans-5f" transform="translate(174.267578 0)"/>
      <use xlink:href="#DejaVuSans-3c0" transform="translate(224.267578 0)"/>
      <use xlink:href="#DejaVuSans-208b" transform="translate(284.472656 0)"/>
      <use xlink:href="#DejaVuSans-69" transform="translate(337.255859 0)"/>
      <use xlink:href="#DejaVuSans-28" transform="translate(365.039062 0)"/>
      <use xlink:href="#DejaVuSans-73" transform="translate(404.052734 0)"/>
      <use xlink:href="#DejaVuSans-2c" transform="translate(456.152344 0)"/>
      <use xlink:href="#DejaVuSans-20" transform="translate(487.939453 0)"/>
      <use xlink:href="#DejaVuSans-61" transform="translate(519.726562 0)"/>
      <use xlink:href="#DejaVuSans-2c" transform="translate(581.005859 0)"/>
      <use xlink:href="#DejaVuSans-20" transform="translate(612.792969 0)"/>
      <use xlink:href="#DejaVuSans-73" transform="translate(644.580078 0)"/>
      <use xlink:href="#DejaVuSans-27" transform="translate(696.679688 0)"/>
      <use xlink:href="#DejaVuSans-29" transform="translate(724.169922 0)"/>
     </g>
    </g>
    <g id="line2d_16">
     <path d="M 305.1375 54.934687 
L 315.1375 54.934687 
L 325.1375 54.934687 
" style="fill: none; stroke-dasharray: 7.4,3.2; stroke-dashoffset: 0; stroke: #ffa500; stroke-width: 2"/>
    </g>
    <g id="text_17">
     <!-- Mπi_π₋i'(s, a, s') -->
     <g transform="translate(333.1375 58.434687) scale(0.1 -0.1)">
      <use xlink:href="#DejaVuSans-4d"/>
      <use xlink:href="#DejaVuSans-3c0" transform="translate(86.279297 0)"/>
      <use xlink:href="#DejaVuSans-69" transform="translate(146.484375 0)"/>
      <use xlink:href="#DejaVuSans-5f" transform="translate(174.267578 0)"/>
      <use xlink:href="#DejaVuSans-3c0" transform="translate(224.267578 0)"/>
      <use xlink:href="#DejaVuSans-208b" transform="translate(284.472656 0)"/>
      <use xlink:href="#DejaVuSans-69" transform="translate(337.255859 0)"/>
      <use xlink:href="#DejaVuSans-27" transform="translate(365.039062 0)"/>
      <use xlink:href="#DejaVuSans-28" transform="translate(392.529297 0)"/>
      <use xlink:href="#DejaVuSans-73" transform="translate(431.542969 0)"/>
      <use xlink:href="#DejaVuSans-2c" transform="translate(483.642578 0)"/>
      <use xlink:href="#DejaVuSans-20" transform="translate(515.429688 0)"/>
      <use xlink:href="#DejaVuSans-61" transform="translate(547.216797 0)"/>
      <use xlink:href="#DejaVuSans-2c" transform="translate(608.496094 0)"/>
      <use xlink:href="#DejaVuSans-20" transform="translate(640.283203 0)"/>
      <use xlink:href="#DejaVuSans-73" transform="translate(672.070312 0)"/>
      <use xlink:href="#DejaVuSans-27" transform="translate(724.169922 0)"/>
      <use xlink:href="#DejaVuSans-29" transform="translate(751.660156 0)"/>
     </g>
    </g>
    <g id="patch_8">
     <path d="M 305.1375 73.390938 
L 325.1375 73.390938 
L 325.1375 66.390938 
L 305.1375 66.390938 
z
" style="fill: #800080; fill-opacity: 0.2; stroke: #800080; stroke-opacity: 0.2; stroke-linejoin: miter"/>
    </g>
    <g id="text_18">
     <!-- Overlap -->
     <g transform="translate(333.1375 73.390938) scale(0.1 -0.1)">
      <use xlink:href="#DejaVuSans-4f"/>
      <use xlink:href="#DejaVuSans-76" transform="translate(78.710938 0)"/>
      <use xlink:href="#DejaVuSans-65" transform="translate(137.890625 0)"/>
      <use xlink:href="#DejaVuSans-72" transform="translate(199.414062 0)"/>
      <use xlink:href="#DejaVuSans-6c" transform="translate(240.527344 0)"/>
      <use xlink:href="#DejaVuSans-61" transform="translate(268.310547 0)"/>
      <use xlink:href="#DejaVuSans-70" transform="translate(329.589844 0)"/>
     </g>
    </g>
   </g>
  </g>
 </g>
 <defs>
  <clipPath id="p19e1816f74">
   <rect x="47.72" y="26.88" width="373.48" height="219.16"/>
  </clipPath>
 </defs>
</svg>
